<svg xmlns="http://www.w3.org/2000/svg" xml:space="preserve" stroke="#000" stroke-width="0" viewBox="0 0 512 512">
  <path stroke="none" d="M502 205a132 132 0 0 0-172-71h-2l-1 1a133 133 0 0 0-48 36l-17 21-4 5a5396 5396 0 0 0-44 64l-4 7a590 590 0 0 1-31 38 67 67 0 0 1-47 19 66 66 0 0 1-27-6 68 68 0 0 1-42-63c0-9 2-18 6-27a69 69 0 0 1 110-23l6 6 14 18 3 4 36-53 2-2a187 187 0 0 0-17-19 134 134 0 0 0-91-36A131 131 0 0 0 0 256a131 131 0 0 0 93 126 132 132 0 0 0 127-28l3-2 10-11 17-21 4-5 31-45 15-22 2-4a543 543 0 0 1 31-38 69 69 0 0 1 47-19 70 70 0 0 1 66 49 68 68 0 0 1-3 47 69 69 0 0 1-110 23l-6-6-14-18-3-4-5 8-31 44-2 3 7 8a124 124 0 0 0 51 37 133 133 0 0 0 159-48 132 132 0 0 0 13-125z"/>
</svg>
